<?xml version="1.0" encoding="UTF-8"?>
<svg width="700pt" height="700pt" version="1.1" viewBox="0 0 700 700" xmlns="http://www.w3.org/2000/svg">
 <g>
  <path d="m411.43 298.94-15.359 8.3906h0.003907c6.918 12.668 8.3164 27.621 3.8711 41.352-4.4492 13.727-14.352 25.02-27.383 31.223s-28.039 6.7695-41.5 1.5625c-2.875-1.1133-6.1328 0.035156-7.6797 2.7031-1.5469 2.668-0.92187 6.0664 1.4727 8.0078l52.965 42.977-10.215-34.902c20.871-5.4258 38.078-20.168 46.641-39.961 8.5625-19.789 7.5234-42.426-2.8164-61.352z"/>
  <path d="m375.14 272.82-52.965-42.977 10.215 34.902c-20.871 5.4258-38.078 20.164-46.641 39.957s-7.5234 42.426 2.8164 61.352l15.359-8.3906h-0.003907c-6.918-12.664-8.3203-27.617-3.8711-41.348 4.4453-13.73 14.352-25.023 27.383-31.227 13.027-6.2031 28.039-6.7656 41.5-1.5625 2.875 1.1133 6.1328-0.03125 7.6797-2.6992 1.5469-2.668 0.92187-6.0664-1.4727-8.0078z"/>
  <path d="m192.5 35c-9.2812 0-18.184 3.6875-24.75 10.25-6.5625 6.5664-10.25 15.469-10.25 24.75h-52.5v17.5c6.2539 0 12.031 3.3359 15.156 8.75s3.125 12.086 0 17.5-8.9023 8.75-15.156 8.75v17.5h52.5v280h-52.5v17.5c6.2266 0.039062 11.965 3.3828 15.066 8.7812 3.1016 5.3984 3.1016 12.039 0 17.438-3.1016 5.3984-8.8398 8.7422-15.066 8.7812v17.5h52.5c0 9.2812 3.6875 18.184 10.25 24.75 6.5664 6.5625 15.469 10.25 24.75 10.25h315c9.2812 0 18.184-3.6875 24.75-10.25 6.5625-6.5664 10.25-15.469 10.25-24.75h52.5v-17.5c-6.2266-0.039062-11.965-3.3828-15.066-8.7812-3.1016-5.3984-3.1016-12.039 0-17.438 3.1016-5.3984 8.8398-8.7422 15.066-8.7812v-17.5h-52.5v-280h52.5v-17.5c-6.2539 0-12.031-3.3359-15.156-8.75s-3.125-12.086 0-17.5 8.9023-8.75 15.156-8.75v-17.5h-52.5c0-9.2812-3.6875-18.184-10.25-24.75-6.5664-6.5625-15.469-10.25-24.75-10.25zm0 17.5h315c4.6406 0 9.0938 1.8438 12.375 5.125s5.125 7.7344 5.125 12.375v420c0 4.6406-1.8438 9.0938-5.125 12.375s-7.7344 5.125-12.375 5.125h-315c-4.6406 0-9.0938-1.8438-12.375-5.125s-5.125-7.7344-5.125-12.375v-420c0-4.6406 1.8438-9.0938 5.125-12.375s7.7344-5.125 12.375-5.125zm-57.184 35h22.184v35h-22.184c3.0742-5.3203 4.6914-11.355 4.6914-17.5s-1.6172-12.18-4.6914-17.5zm407.18 0h22.184c-3.0742 5.3203-4.6914 11.355-4.6914 17.5s1.6172 12.18 4.6914 17.5h-22.184zm-407.18 350h22.184v35h-22.184c6.2539-10.828 6.2539-24.172 0-35zm407.18 0h22.184c-6.2539 10.828-6.2539 24.172 0 35h-22.184z"/>
  <path d="m210 87.5v87.5h280v-87.5zm17.5 17.5h245v52.5h-245z"/>
 </g>
</svg>
