<?xml version="1.0" encoding="UTF-8"?>
<svg width="700pt" height="700pt" version="1.1" viewBox="0 0 700 700" xmlns="http://www.w3.org/2000/svg">
 <g>
  <path d="m354.49 141.41 154.62 129.14 0.007812-0.007813c1.5547 1.2969 2.3555 3.1602 2.3555 5.0352v179.6c0 3.625-2.9375 6.5625-6.5625 6.5625h-117.46c-3.625 0-6.5625-2.9375-6.5625-6.5625v-88.773h-61.781v88.773c0 3.625-2.9375 6.5625-6.5625 6.5625h-117.46c-3.625 0-6.5625-2.9375-6.5625-6.5625v-179.6c0-2.1602 1.043-4.0781 2.6562-5.2734l154.62-129.13-0.003906-0.011719c2.5781-2.1523 6.3164-1.9922 8.6992 0.25391zm143.86 137.22-148.36-123.9-148.36 123.9v169.98h104.34v-88.773c0-3.625 2.9375-6.5625 6.5625-6.5625h74.906c3.625 0 6.5625 2.9375 6.5625 6.5625v88.773h104.34z"/>
  <path d="m549.16 285.12c2.7305 2.3633 6.8633 2.0664 9.2305-0.66797 2.3633-2.7305 2.0664-6.8633-0.66797-9.2305-21.805-18.793-198.87-176.71-207.52-176.96h-0.39062c-10.582 0.3125-185.01 157.55-207.52 176.96-2.7305 2.3633-3.0312 6.4961-0.66797 9.2305 2.3633 2.7305 6.4961 3.0312 9.2305 0.66797l199.16-171.66 199.16 171.66z"/>
  <path d="m239.65 149.24h-26.887l0.21875 65.043 26.668-22.984zm-33.445-13.125h46.57v61.145l-2.2812 1.9648-39.719 34.234-10.77 9.2852-0.046874-14.23-0.28906-85.836-0.023437-6.5625z"/>
 </g>
</svg>
